<svg width="63" height="20" fill="none" xmlns="http://www.w3.org/2000/svg"><g clip-path="url(#clip0_106_5497)"><path d="M17.562 14.2c0 1.603-.536 2.947-1.608 4.03-1.07 1.083-2.402 1.624-3.995 1.625H7.264V12.18h3.03v4.879h1.665c.802 0 1.456-.262 1.96-.785.507-.52.76-1.213.758-2.075 0-.862-.252-1.554-.757-2.077-.505-.522-1.159-.783-1.961-.783h-6.36a5.638 5.638 0 01-2.72-.655 5.465 5.465 0 01-1.276-.969A5.461 5.461 0 010 5.908V5.47c.045-1.512.579-2.784 1.603-3.818C2.674.569 4.006.028 5.6.027h4.695v7.676h-3.03v-4.88H5.599c-.802 0-1.456.261-1.961.784-.506.522-.759 1.214-.759 2.076 0 .863.253 1.555.759 2.077.505.522 1.158.783 1.96.784h6.36c1.594 0 2.926.541 3.996 1.623 1.072 1.082 1.608 2.427 1.608 4.033z" fill="#4A4A4A"/><path d="M28.456 0h-2.709l-2.87 8.53h2.41l.373-1.231h2.895l.373 1.23h2.398L28.456 0zm-2.224 5.422l.87-2.9.882 2.9h-1.752zM35.502 0h-3.541v5.662h2.286V2.108h1.255a1.981 1.981 0 011.479.59c.38.395.571.917.571 1.567 0 .65-.19 1.171-.571 1.565a1.98 1.98 0 01-1.479.591h-3.541V8.53h3.541c1.201 0 2.206-.408 3.013-1.224.808-.817 1.212-1.83 1.212-3.04s-.404-2.224-1.212-3.04C37.708.408 36.703 0 35.502 0zM44.3 0h-3.542v2.108h3.541a1.981 1.981 0 011.479.59c.38.395.571.917.571 1.567 0 .65-.19 1.171-.571 1.565a1.98 1.98 0 01-1.479.591h-1.255V2.867h-2.286v5.662h3.541c1.201 0 2.205-.408 3.013-1.224.808-.817 1.212-1.83 1.212-3.04s-.404-2.224-1.212-3.04C46.505.408 45.5 0 44.3 0z" fill="#E97522"/><path d="M26.257 11.288c.407-.01.812.059 1.192.203.38.144.726.361 1.02.638.596.56.894 1.275.894 2.145 0 .869-.298 1.584-.895 2.144a3.08 3.08 0 01-1.02.638c-.38.144-.784.213-1.191.203H25.1v2.558h-2.224v-8.529h3.38zm0 3.9a.858.858 0 00.823-.56.887.887 0 00.059-.354.867.867 0 00-.882-.902H25.1v1.815h1.156zm8.647-3.901h2.212v8.53h-2.212v-3.278h-2.448v3.277h-2.224v-8.529h2.224v3.156h2.448v-3.156zm11.054 7.428A4.7 4.7 0 0142.721 20a4.7 4.7 0 01-3.236-1.285c-.43-.41-.77-.902-.998-1.446a4.203 4.203 0 01-.326-1.716 4.203 4.203 0 01.326-1.716 4.274 4.274 0 01.997-1.446 4.7 4.7 0 013.237-1.286 4.7 4.7 0 013.237 1.286c.43.41.77.902.998 1.446.228.544.338 1.128.326 1.716a4.204 4.204 0 01-.326 1.716 4.273 4.273 0 01-.998 1.446zm-4.914-1.499a2.519 2.519 0 003.136.39 2.438 2.438 0 001.03-1.301c.178-.538.16-1.12-.053-1.646a2.447 2.447 0 00-1.11-1.236 2.522 2.522 0 00-1.66-.258 2.49 2.49 0 00-1.445.838 2.402 2.402 0 00-.57 1.55 2.235 2.235 0 00.672 1.663zm12.798-5.929v2.108h-2.15v6.422h-2.224v-6.422h-2.15v-2.108h6.524zm7.835 7.428A4.7 4.7 0 0158.44 20a4.7 4.7 0 01-3.237-1.285c-.43-.41-.77-.902-.998-1.446a4.203 4.203 0 01-.325-1.716 4.205 4.205 0 01.325-1.716 4.275 4.275 0 01.998-1.446 4.7 4.7 0 013.237-1.286 4.7 4.7 0 013.237 1.286c.43.41.77.902.998 1.446.227.544.338 1.128.325 1.716a4.205 4.205 0 01-.325 1.716 4.272 4.272 0 01-.998 1.446zm-4.914-1.499a2.519 2.519 0 003.136.39 2.438 2.438 0 001.03-1.301c.178-.538.16-1.12-.053-1.646a2.446 2.446 0 00-1.11-1.236 2.522 2.522 0 00-1.66-.258 2.49 2.49 0 00-1.445.838 2.402 2.402 0 00-.57 1.55 2.235 2.235 0 00.672 1.663z" fill="#B1B1B1"/></g><defs><clipPath id="clip0_106_5497"><path fill="#fff" d="M0 0h63v20H0z"/></clipPath></defs></svg>