<svg width="113" height="36" fill="none" xmlns="http://www.w3.org/2000/svg"><g clip-path="url(#clip0_106_1383)"><path d="M31.5 25.559c0 2.887-.961 5.305-2.884 7.255-1.92 1.949-4.309 2.923-7.166 2.924h-8.422V21.924h5.436v8.781h2.986c1.439 0 2.611-.47 3.517-1.412.908-.938 1.36-2.183 1.36-3.734 0-1.552-.454-2.798-1.36-3.74-.905-.94-2.078-1.41-3.517-1.41H10.042a10.082 10.082 0 01-4.604-1.036 9.8 9.8 0 01-2.562-1.886A9.847 9.847 0 010 10.633v-.788c.08-2.72 1.039-5.01 2.876-6.872C4.796 1.024 7.186.05 10.042.05h8.422v13.816h-5.436V5.082h-2.986c-1.438 0-2.61.47-3.517 1.41s-1.36 2.185-1.36 3.736c0 1.554.453 2.8 1.36 3.739.905.94 2.078 1.41 3.517 1.412H21.45c2.858 0 5.247.974 7.166 2.92 1.923 1.95 2.884 4.37 2.884 7.26z" fill="#4A4A4A"/><path d="M51.04 0h-4.858l-5.149 15.353h4.324l.669-2.216h5.192l.669 2.216h4.301L51.04 0zm-3.99 9.76l1.56-5.22 1.583 5.22h-3.142zM63.678 0h-6.352v10.192h4.101V3.794h2.251c.493-.017.985.069 1.442.252.457.184.87.46 1.21.812.683.71 1.025 1.649 1.025 2.818 0 1.17-.341 2.11-1.025 2.819a3.52 3.52 0 01-2.652 1.063h-6.352v3.795h6.352c2.154 0 3.956-.735 5.404-2.205 1.45-1.47 2.174-3.293 2.174-5.472 0-2.178-.725-4.002-2.174-5.472C67.635.734 65.832 0 63.678 0zm15.777 0h-6.352v3.794h6.352a3.55 3.55 0 011.442.252c.457.184.87.46 1.21.812.684.71 1.025 1.649 1.026 2.818 0 1.17-.342 2.11-1.025 2.819a3.527 3.527 0 01-2.653 1.063h-2.25V5.16h-4.102v10.193h6.352c2.154 0 3.956-.735 5.405-2.205 1.449-1.47 2.173-3.293 2.173-5.472 0-2.178-.725-4.002-2.173-5.472C83.41.734 81.61 0 79.455 0z" fill="#E97522"/><path d="M47.095 20.318a5.591 5.591 0 012.138.365c.681.26 1.303.65 1.83 1.149 1.07 1.009 1.604 2.295 1.604 3.86s-.535 2.851-1.605 3.86a5.523 5.523 0 01-1.829 1.148 5.59 5.59 0 01-2.138.365h-2.073v4.606h-3.989V20.318h6.062zm0 7.019a1.532 1.532 0 001.126-.461 1.623 1.623 0 00.457-1.184 1.564 1.564 0 00-.973-1.513 1.554 1.554 0 00-.61-.11h-2.073v3.268h2.073zm15.514-7.019h3.967v15.353h-3.967v-5.9h-4.391v5.9h-3.99V20.318h3.99v5.68h4.39v-5.68zm19.823 13.369a8.415 8.415 0 01-5.805 2.314c-2.167 0-4.25-.83-5.806-2.314a7.694 7.694 0 01-1.79-2.602 7.592 7.592 0 01-.584-3.09 7.592 7.592 0 01.584-3.089 7.693 7.693 0 011.79-2.602 8.416 8.416 0 015.806-2.314c2.167 0 4.249.83 5.805 2.314a7.695 7.695 0 011.79 2.602c.408.98.607 2.031.584 3.09a7.59 7.59 0 01-.584 3.089 7.693 7.693 0 01-1.79 2.602zm-8.814-2.698a4.504 4.504 0 005.624.702 4.387 4.387 0 001.847-2.342 4.31 4.31 0 00-.093-2.963 4.399 4.399 0 00-1.992-2.225 4.51 4.51 0 00-2.976-.464 4.461 4.461 0 00-2.593 1.509 4.334 4.334 0 00-1.02 2.79 3.98 3.98 0 00.284 1.62c.208.515.52.982.919 1.373zm22.956-10.671v3.795h-3.856V35.67h-3.99V24.113h-3.855v-3.795h11.701zm14.052 13.369a8.417 8.417 0 01-5.806 2.314 8.416 8.416 0 01-5.806-2.314 7.692 7.692 0 01-1.79-2.602 7.59 7.59 0 01-.584-3.09 7.592 7.592 0 01.585-3.089 7.693 7.693 0 011.79-2.602 8.417 8.417 0 015.805-2.314c2.167 0 4.249.83 5.806 2.314a7.687 7.687 0 011.789 2.602c.409.98.608 2.031.584 3.09a7.569 7.569 0 01-.584 3.089 7.686 7.686 0 01-1.789 2.602zm-8.815-2.698a4.504 4.504 0 005.624.702 4.387 4.387 0 001.848-2.342 4.31 4.31 0 00-.094-2.963 4.4 4.4 0 00-1.992-2.225 4.51 4.51 0 00-2.976-.464 4.463 4.463 0 00-2.593 1.509 4.332 4.332 0 00-1.021 2.79 3.995 3.995 0 001.204 2.993z" fill="#B1B1B1"/></g><defs><clipPath id="clip0_106_1383"><path fill="#fff" d="M0 0h113v36H0z"/></clipPath></defs></svg>